<svg width="1200" height="1200" xmlns="http://www.w3.org/2000/svg" xmlns:xlink="http://www.w3.org/1999/xlink" version="1.1"><g transform="scale(17.30831616861472) translate(0.6654180950588611, 0.6654188103146019)"><g fill="#f0a500"><g xmlns="http://www.w3.org/2000/svg"><path d="M26.0253315,64.4940338l26.435545-15.3891602c0.1875-0.1079102,0.2978516-0.3920898,0.2978516-0.7602539   l0.1005859-35.7036133c0-0.0004883,0-0.0009766,0-0.0014648c0.0097656-1.609375-0.5371094-3.4555664-1.5371094-5.1977534   c-0.9960938-1.7250977-2.3300781-3.1293945-3.7539063-3.9531252c-1.3095703-0.7553711-2.5712891-0.8950195-3.4648438-0.3857422   L18.3876362,18.0721607c0.0742188,0.0109253,0.1503906,0.0310669,0.2255859,0.0459595   c0.0478516,0.0093994,0.0947266,0.0180664,0.1425781,0.0290527c0.1376953,0.0316162,0.2763672,0.0712891,0.4165039,0.1159058   c0.0454102,0.0145874,0.0908203,0.0270386,0.137207,0.0430298c0.1396484,0.0487671,0.2802734,0.1065063,0.421875,0.1681519   c0.0483398,0.0211792,0.0966797,0.0388184,0.1455078,0.0614624c0.121582,0.0568237,0.2436523,0.1230469,0.3657227,0.1893921   c0.0634766,0.0343628,0.1269531,0.0620728,0.190918,0.098999c0.1938477,0.1121216,0.3857422,0.2340698,0.5756836,0.3650513   c1.2890625,0.8849487,2.4707031,2.196228,3.3867188,3.7559204c0.0258789,0.0440063,0.0541992,0.0856323,0.0795898,0.1300049   c0.0629883,0.1091919,0.1079102,0.222229,0.1679688,0.3323364c0.1933594,0.3555298,0.3847656,0.7120361,0.5419922,1.0745239   c0.0830078,0.1920776,0.1376953,0.3847656,0.2104492,0.5774536c0.1054688,0.2805786,0.2231445,0.5609131,0.3061523,0.8412476   c0.21875,0.739563,0.3295898,1.4639893,0.3789063,2.168457c0.0141602,0.2012329,0.0478516,0.4082031,0.0478516,0.6046143   l-0.1005859,35.6943359C26.0282612,64.4105377,26.0272846,64.4525299,26.0253315,64.4940338z M28.6869526,27.131609   c0-0.135498,0.0395508-0.2756348,0.121582-0.4180908c0.0791016-0.1425171,0.1772461-0.249939,0.2963867-0.317688   l2.1723633-1.2543335c0.8457012-0.4881592,1.4785137-0.6539917,1.9038067-0.4974976   c0.4228516,0.1564941,0.6352539,0.5582275,0.6376953,1.2075806c0,0.4298096-0.1005859,0.8782959-0.3085938,1.3547974   c-0.2075195,0.4718018-0.5092773,0.9039307-0.90625,1.2893066c0.4487305-0.1213989,0.7543945,0.0187378,0.9204102,0.4298096   c0.1660156,0.4064331,0.25,0.8549194,0.25,1.3407593l0.0024414,0.3573608l1.8847656,1.656065l1.9575195-4.0269146   c0.0698242-0.1517944,0.1728516-0.2709351,0.3081055-0.3503418c0.1123047-0.0630493,0.2080078-0.0747681,0.2895508-0.0303345   c0.0820313,0.0396729,0.121582,0.1260986,0.121582,0.2545776c0,0.1004639-0.0234375,0.203186-0.0722656,0.3106689   l-2.144043,4.2978497l2.1601563,1.7985229c0.0561523,0.0397339,0.0844727,0.1168213,0.0844727,0.2289429   c0,0.1378174-0.0375977,0.2732544-0.1147461,0.4110718s-0.1796875,0.2429199-0.3037109,0.3153687   c-0.1352539,0.0794067-0.2475586,0.074707-0.3339844-0.0117188l-2.0039063-1.7307739l-1.9599609,4.0292358   c-0.0908203,0.1821899-0.2006836,0.3106079-0.324707,0.3830566c-0.1074219,0.06073-0.1982422,0.067749-0.2753906,0.0233154   c-0.0771484-0.0443726-0.1166992-0.128418-0.1166992-0.2498779c0-0.1121216,0.027832-0.2289429,0.081543-0.3480835   l2.1445313-4.2838135l-2.1420898-1.7891827h-0.0024414c-0.0024414-0.0023804-0.0043945-0.0046997-0.0068359-0.0093994   c-0.0117188-0.0093384-0.0209961-0.0233154-0.0283203-0.0373535c-0.0112305-0.0163574-0.0209961-0.0350342-0.027832-0.0560303   c-0.0048828-0.0187378-0.0117188-0.0397339-0.0166016-0.0631104c0.0024414-0.0023193,0-0.0046387,0-0.0046387   c-0.0043945-0.0280151-0.0068359-0.0584106-0.0068359-0.0934448l-0.0024414-0.3200073   c0-0.3573608-0.0302734-0.6703491-0.0864258-0.9436646c-0.0556641-0.2686157-0.1889648-0.4647827-0.4013672-0.581604   c-0.2128906-0.1167603-0.5327129-0.0537109-0.9624004,0.1938477l-1.9291992,1.1141968l0.0068359,2.4852886   c0,0.1378174-0.0419922,0.2756348-0.1240234,0.4157715c-0.0839844,0.1424561-0.1845703,0.2475586-0.3037109,0.3153076   s-0.2172852,0.0794067-0.2988281,0.0303955c-0.081543-0.0443726-0.121582-0.1331787-0.121582-0.2709351L28.6869526,27.131609z    M42.633728,39.3744049c0.1904297-0.1108398,0.4355469-0.0473633,0.546875,0.1445313   c0.1113281,0.190918,0.046875,0.4355469-0.1445313,0.546875L29.3710346,48.023819   c-0.0634766,0.0366211-0.1328125,0.0541992-0.2011719,0.0541992c-0.1376953,0-0.2714844-0.0708008-0.3457031-0.1987305   c-0.1113281-0.190918-0.046875-0.4355469,0.1445313-0.546875L42.633728,39.3744049z M33.1845093,52.820694l-3.8339825,2.2329102   c-0.0634766,0.0366211-0.1328125,0.0541992-0.2011719,0.0541992c-0.1376953,0-0.2714844-0.0708008-0.3457031-0.1987305   c-0.1113281-0.190918-0.046875-0.4355469,0.1445313-0.546875l3.8339825-2.2329102   c0.1904297-0.1108398,0.4365234-0.0473633,0.546875,0.1445313C33.4403687,52.4647369,33.3759155,52.7093658,33.1845093,52.820694z    M49.8710327,43.1034088l-13.5371094,7.8837891c-0.0634766,0.0366211-0.1328125,0.0541992-0.2011719,0.0541992   c-0.1376953,0-0.2714844-0.0708008-0.3457031-0.1987305c-0.1113281-0.190918-0.046875-0.4355469,0.1445313-0.546875   l13.5371094-7.8837891c0.1904297-0.1103516,0.4355469-0.046875,0.546875,0.1445313   C50.1268921,42.7474518,50.062439,42.9920807,49.8710327,43.1034088z M49.890564,36.0736237l-3.4648438,2.0180664   c-0.0634766,0.0366211-0.1328125,0.0541992-0.2011719,0.0541992c-0.1376953,0-0.2714844-0.0708008-0.3457031-0.1987305   c-0.1113281-0.190918-0.046875-0.4355469,0.1445313-0.546875l3.4648438-2.0180664   c0.1923828-0.1098633,0.4365234-0.046875,0.546875,0.1445313C50.1464233,35.7176666,50.0819702,35.9622955,49.890564,36.0736237z    M49.9110718,29.0438404l-9.0332031,5.2431622c-0.0634766,0.0366211-0.1328125,0.0537109-0.2011719,0.0537109   c-0.1376953,0-0.2714844-0.0712891-0.3457031-0.1992188c-0.1113281-0.190918-0.0458984-0.4355469,0.1445313-0.546875   l9.0332031-5.2431622c0.1923828-0.1103516,0.4365234-0.0458984,0.546875,0.1455078   C50.1669312,28.6878834,50.1015015,28.9325123,49.9110718,29.0438404z M49.930603,22.0038013l-6.796875,3.9609375   c-0.0634766,0.0366211-0.1328125,0.0541992-0.2011719,0.0541992c-0.1376953,0-0.2714844-0.0708008-0.3457031-0.1987305   c-0.1113281-0.1904297-0.046875-0.4355469,0.1445313-0.546875l6.796875-3.9609375   c0.1904297-0.1108398,0.4365234-0.0463867,0.546875,0.1445313C50.1864624,21.647356,50.1220093,21.8924732,49.930603,22.0038013z    M50.0956421,14.426652c0.1113281,0.190918,0.046875,0.4355469-0.1445313,0.546875l-13.84375,8.0654306   c-0.0634766,0.0366211-0.1328125,0.0541992-0.2011719,0.0541992c-0.1376953,0-0.2714844-0.0708008-0.3457031-0.1987305   c-0.1113281-0.190918-0.046875-0.4355469,0.1445313-0.546875l13.84375-8.0654306   C49.7391968,14.1722574,49.984314,14.2352457,50.0956421,14.426652z M43.6122437,10.7225504l4.4863281-2.6103516   c0.1923828-0.1098633,0.4345703-0.0463867,0.546875,0.1445313c0.1113281,0.190918,0.046875,0.4360352-0.1445313,0.546875   l-4.4863281,2.6103516c-0.0634766,0.0366211-0.1328125,0.0541992-0.2011719,0.0541992   c-0.1376953,0-0.2714844-0.0712891-0.3457031-0.1987305C43.3563843,11.0785074,43.4208374,10.8333902,43.6122437,10.7225504z    M26.6181049,20.6121998l12.3701153-7.1987314c0.1923828-0.1098633,0.4355469-0.0463867,0.546875,0.1445313   s0.046875,0.4355469-0.1445313,0.546875L27.0204487,21.303606c-0.0634766,0.0366211-0.1328125,0.0541992-0.2011719,0.0541992   c-0.1376953,0-0.2714844-0.0712891-0.3457031-0.1987305C26.3622456,20.9681568,26.4266987,20.7235279,26.6181049,20.6121998z"/><path d="M31.232851,28.815691c0.5327148-0.3082886,0.9555645-0.6749878,1.2709942-1.1000977   c0.3129883-0.4204712,0.4692383-0.8572998,0.4667969-1.2987061c0-0.4298096-0.1376953-0.6797485-0.4086914-0.7521362   c-0.2709961-0.0700684-0.7333965,0.0794067-1.385252,0.4578247l-1.6396484,0.9459839l0.0073242,2.7211914L31.232851,28.815691z"/><path d="M24.0849018,65.0130768c0.3339844,0.1918945,0.6386719,0.2382813,0.8339844,0.1245117   c0.1943359-0.1118164,0.3056641-0.3916016,0.3066406-0.7675781l0.1015625-35.6967773   c0.0004883-0.1776123-0.03125-0.369873-0.0449219-0.5541382c-0.0478516-0.6486816-0.1533203-1.3220825-0.3583984-2.0125122   c-0.050293-0.1679077-0.1254883-0.3361206-0.184082-0.5045776c-0.0957031-0.274231-0.1821289-0.5489502-0.2998047-0.821228   c-0.1411133-0.3265991-0.3139648-0.645874-0.4858398-0.9647827c-0.0605469-0.1126709-0.1074219-0.2299805-0.171875-0.3410034   c-0.0014648-0.0026245-0.003418-0.005188-0.0048828-0.0078125c-0.2426758-0.421936-0.5058594-0.8238525-0.7856445-1.2034302   c-0.0141602-0.019165-0.0288086-0.0372925-0.043457-0.0563354c-0.2612305-0.3510132-0.5380859-0.6798096-0.8256836-0.9875488   c-0.0380859-0.0410156-0.0766602-0.0810547-0.1152344-0.1212158c-0.2866211-0.2979126-0.5834961-0.5747681-0.8891602-0.8237915   c-0.0239258-0.0196533-0.0478516-0.0393677-0.0717773-0.0587158c-0.3227539-0.2576904-0.6538086-0.4873657-0.9902344-0.6837769   c-0.0058594-0.00354-0.012207-0.0079956-0.0180664-0.0114746c-0.1425781-0.0831299-0.2841797-0.1555786-0.425293-0.223938   c-0.0214844-0.010376-0.043457-0.0238647-0.0649414-0.0338745c-0.0317383-0.0150146-0.0629883-0.0250244-0.0947266-0.0391846   c-0.6132813-0.272522-1.206543-0.4085693-1.7431641-0.3953857c-0.4208984,0.0113525-0.8081055,0.1119995-1.1445313,0.3046875   c-0.0009766,0.0004883-0.0009766,0.0004883-0.0019531,0.0009766c-0.0024414,0.0014648-0.0053711,0.0012817-0.0078125,0.0026855   c-0.8916025,0.5142212-1.4052744,1.6749878-1.4091806,3.1877441l-0.0058594,2.1772461   c-0.0029297,0.9545898,0.6953125,2.1660156,1.524415,2.6455078c0.3339844,0.1928711,0.6376953,0.2392578,0.8339844,0.1245117   c0.0395508-0.022644,0.0732422-0.0567017,0.1054688-0.0926514c0.0126953-0.0152588,0.0288086-0.0331421,0.0380859-0.0462646   c0.0219727-0.0305176,0.0405273-0.0661011,0.0585938-0.1031494c0.0058594-0.0383911,0.059082-0.1859741,0.0703125-0.2169189   c0.0102539-0.0592651,0.015625-0.1010132,0.0209961-0.1419678c0.003418-0.034729,0.0068359-0.0693359,0.0083008-0.1062012   c0.0009766-0.0185547,0.0029297-0.0379639,0.0029297-0.0570068l0.0063477-1.4525146l0.0024414-0.7286377   c0.0019531-0.7646484,0.2832031-1.3515625,0.7949219-1.6513672c0.121582-0.0695801,0.2519531-0.1154785,0.3867188-0.1466064   c0.0488281-0.0114746,0.1000977-0.0122681,0.1503906-0.0186768c0.0634766-0.0079346,0.125-0.0236816,0.1904297-0.0236816   c0.019043,0,0.0400391,0.0084229,0.059082,0.0090942c0.1206055,0.0039063,0.2441406,0.0266724,0.3696289,0.0568848   c0.0478516,0.0114746,0.09375,0.0153809,0.1425781,0.0306396c0.1494141,0.0473633,0.3012695,0.116333,0.4541016,0.1997681   c0.0273438,0.0147095,0.0537109,0.0198364,0.0810547,0.0356445c0.1474609,0.085144,0.2905273,0.1845093,0.4296875,0.2949829   c0.0302734,0.0239258,0.0585938,0.0530396,0.0878906,0.078186c0.2568359,0.2167358,0.5,0.4701538,0.7192383,0.7653809   c0.121582,0.1639404,0.2363281,0.3381958,0.3422852,0.5216064c0.0869141,0.152832,0.1630859,0.3046875,0.2382813,0.4555664   c0.0073242,0.0148926,0.0083008,0.0325928,0.0141602,0.0484009c0.2548828,0.5739136,0.3896484,1.1487427,0.3881836,1.6879272   L22.5604877,62.367569C22.5575581,63.3216705,23.2558002,64.5330963,24.0849018,65.0130768z"/><path d="M20.3974018,23.7572803c-0.1147461-0.0928955-0.2324219-0.1739502-0.3515625-0.2417603   c-0.1176758-0.0697021-0.2304688-0.1188965-0.3388672-0.1570435c-0.0385742-0.0132446-0.0742188-0.0196533-0.1113281-0.0290527   c-0.0683594-0.0175781-0.1347656-0.0302124-0.1982422-0.0342407c-0.0336914-0.0022583-0.0664063-0.0018311-0.0986328-0.0001831   c-0.1044922,0.0057983-0.203125,0.0235596-0.2871094,0.071106c-0.3271484,0.1943359-0.3974609,0.6308594-0.3974609,0.9619141   l-0.003418,0.7287598l-0.0043945,1.4499512c0,0.0090332-0.0024414,0.0164795-0.0024414,0.0254517   c-0.0004883,0.0311279-0.0014648,0.0618286-0.0024414,0.0907593l2.7890625-1.6182861   c-0.0229492-0.0432739-0.0405273-0.0864868-0.0654297-0.1297607   C21.0595112,24.4171925,20.7435932,24.0372486,20.3974018,23.7572803z"/></g></g></g></svg>
